<svg version="1.1" id="Layer_1" xmlns="http://www.w3.org/2000/svg" xmlns:xlink="http://www.w3.org/1999/xlink" x="0px" y="0px"
	 width="100%" viewBox="0 0 608 608" enable-background="new 0 0 608 608" xml:space="preserve">
<path fill="#000000" opacity="1.000000" stroke="none" 
	d="
M424.755676,270.783905 
	C363.805481,361.944885 303.055450,452.814819 242.305405,543.684753 
	C241.752975,543.417664 241.200531,543.150635 240.648087,542.883545 
	C258.653748,478.136627 276.659393,413.389709 294.959564,347.583740 
	C258.869812,347.583740 223.690002,347.583740 188.510178,347.583740 
	C188.133224,347.034760 187.756287,346.485748 187.379333,345.936768 
	C248.820801,254.094925 310.262268,162.253067 371.703766,70.411224 
	C372.234467,70.633766 372.765167,70.856308 373.295898,71.078850 
	C355.287567,135.904221 337.279266,200.729584 319.001221,266.525940 
	C355.227844,266.525940 390.571350,266.525940 425.555817,266.525940 
	C426.506958,268.658142 425.433929,269.486267 424.755676,270.783905 
z"/>
</svg>